<svg width="42" height="55" viewBox="0 0 42 55" fill="none" xmlns="http://www.w3.org/2000/svg">
<path fill-rule="evenodd" clip-rule="evenodd" d="M33.4783 45.8083C32.7174 45.6576 32.1087 46.1097 31.8043 46.7124L29.5217 55.0001L23.1304 44.0001C28.1522 43.548 32.7174 41.5891 36.3696 38.5754L41.8478 48.0686L33.4783 45.8083Z" fill="#9FA2B4"/>
<path fill-rule="evenodd" clip-rule="evenodd" d="M12.3261 55.0001L10.0435 46.7124C9.89131 46.1097 9.13044 45.6576 8.52174 45.8083L0.152176 48.0686L5.63044 38.5754C9.28261 41.5891 13.8478 43.548 18.7174 44.0001L12.3261 55.0001Z" fill="#9FA2B4"/>
<path fill-rule="evenodd" clip-rule="evenodd" d="M0 20.7945C0 9.34247 9.43478 0 21 0C32.5652 0 42 9.34247 42 20.7945C42 32.2466 32.5652 41.589 21 41.589C9.43478 41.589 0 32.2466 0 20.7945ZM23.7391 18.0822H30.4348C31.0435 18.0822 31.3478 18.8356 30.8913 19.137L25.2609 23.0548L27.3913 29.5342C27.6957 30.137 26.9348 30.589 26.4783 30.137L21 26.2192L15.5217 30.137C15.0652 30.589 14.3043 30.137 14.4565 29.5342L16.587 23.0548L11.1087 19.137C10.6522 18.8356 10.9565 18.0822 11.5652 18.0822H18.2609L20.3913 11.6027C20.5435 11 21.4565 11 21.6087 11.6027L23.7391 18.0822Z" fill="#9FA2B4"/>
</svg>
