<svg width="48" height="52" viewBox="0 0 48 52" fill="none" xmlns="http://www.w3.org/2000/svg">
<path d="M30.75 14.75V47.75C30.75 48.995 29.745 50 28.5 50H19.5C18.255 50 17.25 48.995 17.25 47.75V14.75C17.25 13.52 18.255 12.5 19.5 12.5H28.5C29.745 12.5 30.75 13.52 30.75 14.75Z" fill="#9FA2B4"/>
<path d="M13.5 22.3101V47.7501C13.5 48.9951 12.495 50.0001 11.25 50.0001H2.25C1.005 50.0001 0 48.9951 0 47.7501V22.3101C0 21.0801 1.005 20.0601 2.25 20.0601H11.25C12.495 20.0601 13.5 21.0801 13.5 22.3101Z" fill="#9FA2B4"/>
<path d="M48 4.25V47.75C48 48.995 46.995 50 45.75 50H36.75C35.505 50 34.5 48.995 34.5 47.75V4.25C34.5 3.02 35.505 2 36.75 2H45.75C46.995 2 48 3.02 48 4.25Z" fill="#9FA2B4"/>
</svg>
