<svg width="64" height="54" viewBox="0 0 64 54" fill="none" xmlns="http://www.w3.org/2000/svg">
<g clip-path="url(#clip0)">
<path d="M22.66 9.34C22.66 4.18 26.84 0 32 0C37.16 0 41.34 4.18 41.34 9.34C41.34 14.5 37.16 18.68 32 18.68C26.84 18.68 22.66 14.5 22.66 9.34ZM52.66 18.8C57.03 18.81 60.57 15.27 60.58 10.9C60.59 6.53 57.05 2.99 52.68 2.98C48.31 2.97 44.77 6.51 44.76 10.88C44.76 10.89 44.76 10.89 44.76 10.9C44.77 15.27 48.31 18.81 52.68 18.8H52.69H52.66ZM11.31 2.99C6.94 2.98 3.4 6.52 3.39 10.89C3.38 15.26 6.92 18.8 11.29 18.81C15.65 18.82 19.19 15.3 19.21 10.94C19.23 6.57 15.71 3.01 11.34 2.99C11.33 2.99 11.32 2.99 11.31 2.99ZM52.69 22.6C50.5 22.56 48.33 23.04 46.37 24.01C47.05 24.81 47.66 25.67 48.17 26.59C51.48 32.59 50.01 41.51 48.23 47.89H60.64C60.64 47.89 66.43 34.16 62.81 27.66C59.89 22.4 53.42 22.6 52.69 22.6ZM11.31 22.6C10.58 22.6 4.11 22.4 1.19 27.66C-2.43 34.16 3.36 47.94 3.36 47.94H15.77C13.99 41.56 12.52 32.6 15.83 26.64C16.34 25.72 16.95 24.86 17.63 24.06C15.67 23.07 13.5 22.57 11.31 22.6ZM32 22.2C31.09 22.2 23 21.95 19.33 28.54C15.75 34.97 19.53 47.07 21.26 51.85C21.71 53.06 22.87 53.85 24.16 53.85H39.84C41.13 53.85 42.29 53.06 42.74 51.85C44.47 47.07 48.25 34.94 44.67 28.54C41 21.94 32.91 22.2 32 22.2Z" fill="#9FA2B4"/>
</g>
<defs>
<clipPath id="clip0">
<rect width="64" height="53.85" fill="white"/>
</clipPath>
</defs>
</svg>
