<svg width="58" height="55" viewBox="0 0 58 55" fill="none" xmlns="http://www.w3.org/2000/svg">
<path d="M40.3946 23.9495L35.1383 25.5154C34.3046 24.083 33.2533 22.7842 32.0208 21.6796L34.6429 16.8242L28.0092 13.1826L25.4233 18.038C23.8283 17.6253 22.185 17.4675 20.5417 17.5525L18.9587 12.2236L11.7087 14.3964L13.2917 19.7132C11.8538 20.5507 10.5488 21.6189 9.425 22.857L4.55542 20.2108L0.930417 26.8749L5.76375 29.4483C5.32875 31.0627 5.1475 32.7257 5.23208 34.3887L0 35.991L2.15083 43.2742L7.37083 41.7326C8.21667 43.1892 9.26792 44.5002 10.5125 45.6291L7.91458 50.4845L14.5483 54.1261L17.1583 49.2706C18.7654 49.6955 20.4329 49.8776 22.1004 49.7926L23.6471 55.0001L30.8971 52.8394L29.3625 47.6198C30.8004 46.7822 32.0933 45.7262 33.205 44.488L38.0383 47.11L41.6633 40.4459L36.83 37.7997C37.2529 36.1731 37.4221 34.498 37.3375 32.8228L42.5938 31.257L40.3946 23.9495ZM23.5988 41.6355C19.2246 42.9343 14.6329 40.4337 13.34 36.0396C12.0471 31.6454 14.5363 27.0327 18.9104 25.7339C23.2846 24.4351 27.8762 26.9356 29.1692 31.3298V31.3419C30.4621 35.724 27.9729 40.3366 23.5988 41.6355C23.6108 41.6355 23.5988 41.6355 23.5988 41.6355Z" fill="#9FA2B4"/>
<path d="M54.8704 14.0686L58 13.9594L57.8429 9.60163L54.7133 9.72302C54.4475 8.78835 54.0488 7.91437 53.505 7.11322L55.6679 4.79475L52.49 1.82079L50.3392 4.13926C49.5054 3.66586 48.5992 3.32598 47.6567 3.1439L47.5479 0L43.21 0.157802L43.3308 3.28956C42.4125 3.55661 41.5304 3.96932 40.7329 4.50342L38.4371 2.35489L35.4888 5.5352L37.7846 7.68373C37.3133 8.5213 36.975 9.43169 36.7817 10.3785L33.6521 10.4999L33.8333 14.8455L36.975 14.7363C37.2408 15.6588 37.6517 16.5449 38.1833 17.3461L36.0567 19.6524L39.1863 22.6385L41.3129 20.3322C42.1467 20.7934 43.0529 21.1333 43.9834 21.3275L44.1042 24.4836L48.43 24.3258L48.3333 21.1333C49.2517 20.8663 50.1338 20.4535 50.9313 19.9194L53.2392 22.0801L56.1996 18.8877L53.8796 16.727C54.3508 15.9016 54.6771 15.0033 54.8704 14.0686ZM45.9892 16.9819C43.3792 17.079 41.18 15.0154 41.0833 12.3935C40.9867 9.77157 43.0408 7.56235 45.6508 7.46524C48.2608 7.36813 50.46 9.41955 50.5446 12.0536C50.6534 14.6756 48.6113 16.8848 45.9892 16.9819Z" fill="#9FA2B4"/>
</svg>
